<?xml version="1.0" standalone="no"?><!DOCTYPE svg PUBLIC "-//W3C//DTD SVG 1.1//EN" "http://www.w3.org/Graphics/SVG/1.1/DTD/svg11.dtd"><svg t="1721225737806" class="icon" viewBox="0 0 1024 1024" version="1.1" xmlns="http://www.w3.org/2000/svg" p-id="16148" xmlns:xlink="http://www.w3.org/1999/xlink" width="200" height="200"><path d="M384.000004 159.999995C313.376006 159.999995 256.000008 217.375993 256.000008 287.999991v223.999993H160.000011c-35.199999 0-63.999998 28.799999-63.999998 63.999998s28.799999 63.999998 63.999998 63.999998h703.999978c35.199999 0 63.999998-28.799999 63.999998-63.999998s-28.799999-63.999998-63.999998-63.999998h-95.999997V287.999991c0-70.623998-57.375998-127.999996-127.999996-127.999996h-255.999992z m0 31.999999h255.999992c53.439998 0 95.999997 42.559999 95.999997 95.999997v223.999993H288.000007V287.999991c0-53.439998 42.559999-95.999997 95.999997-95.999997zM160.000011 543.999983h703.999978c18.015999 0 31.999999 13.984 31.999999 31.999999s-13.984 31.999999-31.999999 31.999999H160.000011c-18.015999 0-31.999999-13.984-31.999999-31.999999s13.984-31.999999 31.999999-31.999999z m79.871998 125.055996a16 16 0 0 0-11.072 27.519999l64.063998 63.679998a16 16 0 0 0 2.016 1.6 95.359997 95.359997 0 0 0-6.88 35.199999c0 52.927998 43.103999 95.999997 95.999997 95.999997s95.999997-43.071999 95.999997-95.999997c0-6.048-0.672-11.936-1.76-17.695999a47.679999 47.679999 0 0 1 33.823999-14.304c12.8 0 24.735999 5.376 33.695999 14.304-1.088 5.76-1.76 11.648-1.76 17.695999 0 52.927998 43.103999 95.999997 95.999997 95.999997s95.999997-43.071999 95.999997-95.999997c0-12.352-2.56-24.127999-6.816-35.007999a16 16 0 0 0 2.24-1.792l64.063998-63.679998a16 16 0 0 0-11.551999-27.519999 16 16 0 0 0-11.008 4.8l-60.863998 60.479998A95.359997 95.359997 0 0 0 639.999996 701.023978c-34.879999 0-65.279998 18.911999-82.047997 46.879999a79.679998 79.679998 0 0 0-45.823999-14.88 79.999998 79.999998 0 0 0-46.143999 14.816A95.711997 95.711997 0 0 0 384.000004 701.055978c-28.799999 0-54.335998 12.992-71.935998 33.119999L251.360008 673.919979a16 16 0 0 0-11.487999-4.8z m144.127995 63.999998c35.743999 0 63.999998 28.287999 63.999998 63.999998 0 35.743999-28.255999 63.999998-63.999998 63.999998s-63.999998-28.255999-63.999998-63.999998c0-35.711999 28.255999-63.999998 63.999998-63.999998z m255.999992 0c35.743999 0 63.999998 28.287999 63.999998 63.999998 0 35.743999-28.255999 63.999998-63.999998 63.999998s-63.999998-28.255999-63.999998-63.999998c0-35.711999 28.255999-63.999998 63.999998-63.999998z" p-id="16149" fill="#2c2c2c"></path></svg>